<mxfile host="www.draw.io" modified="2019-10-22T11:09:33.090Z" agent="Mozilla/5.0 (Windows NT 10.0; Win64; x64) AppleWebKit/537.36 (KHTML, like Gecko) Chrome/77.0.3865.120 Safari/537.36" etag="3CALGuM6ag1YgpNtg83N" version="12.1.3" type="github" pages="1">
  <diagram name="Page-1" id="c4acf3e9-155e-7222-9cf6-157b1a14988f">
    <mxGraphModel dx="1024" dy="575" grid="1" gridSize="10" guides="1" tooltips="1" connect="1" arrows="1" fold="1" page="1" pageScale="1" pageWidth="850" pageHeight="1100" background="#ffffff" math="0" shadow="0">
      <root>
        <mxCell id="0"/>
        <mxCell id="1" parent="0"/>
        <mxCell id="OdX9hXqS-RiyLQQksaOV-4" value="Użytkownik" style="swimlane;fontStyle=1;align=center;verticalAlign=top;childLayout=stackLayout;horizontal=1;startSize=26;horizontalStack=0;resizeParent=1;resizeParentMax=0;resizeLast=0;collapsible=1;marginBottom=0;" parent="1" vertex="1">
          <mxGeometry x="350" y="16" width="160" height="190" as="geometry"/>
        </mxCell>
        <mxCell id="OdX9hXqS-RiyLQQksaOV-5" value="# login: string&#xa;" style="text;strokeColor=none;fillColor=none;align=left;verticalAlign=top;spacingLeft=4;spacingRight=4;overflow=hidden;rotatable=0;points=[[0,0.5],[1,0.5]];portConstraint=eastwest;" parent="OdX9hXqS-RiyLQQksaOV-4" vertex="1">
          <mxGeometry y="26" width="160" height="26" as="geometry"/>
        </mxCell>
        <mxCell id="OdX9hXqS-RiyLQQksaOV-9" value="# hasło: string&#xa;" style="text;strokeColor=none;fillColor=none;align=left;verticalAlign=top;spacingLeft=4;spacingRight=4;overflow=hidden;rotatable=0;points=[[0,0.5],[1,0.5]];portConstraint=eastwest;" parent="OdX9hXqS-RiyLQQksaOV-4" vertex="1">
          <mxGeometry y="52" width="160" height="26" as="geometry"/>
        </mxCell>
        <mxCell id="OdX9hXqS-RiyLQQksaOV-10" value="# email: string&#xa;" style="text;strokeColor=none;fillColor=none;align=left;verticalAlign=top;spacingLeft=4;spacingRight=4;overflow=hidden;rotatable=0;points=[[0,0.5],[1,0.5]];portConstraint=eastwest;" parent="OdX9hXqS-RiyLQQksaOV-4" vertex="1">
          <mxGeometry y="78" width="160" height="26" as="geometry"/>
        </mxCell>
        <mxCell id="OdX9hXqS-RiyLQQksaOV-6" value="" style="line;strokeWidth=1;fillColor=none;align=left;verticalAlign=middle;spacingTop=-1;spacingLeft=3;spacingRight=3;rotatable=0;labelPosition=right;points=[];portConstraint=eastwest;" parent="OdX9hXqS-RiyLQQksaOV-4" vertex="1">
          <mxGeometry y="104" width="160" height="8" as="geometry"/>
        </mxCell>
        <mxCell id="OdX9hXqS-RiyLQQksaOV-7" value="+ zmienHaslo(): void" style="text;strokeColor=none;fillColor=none;align=left;verticalAlign=top;spacingLeft=4;spacingRight=4;overflow=hidden;rotatable=0;points=[[0,0.5],[1,0.5]];portConstraint=eastwest;" parent="OdX9hXqS-RiyLQQksaOV-4" vertex="1">
          <mxGeometry y="112" width="160" height="26" as="geometry"/>
        </mxCell>
        <mxCell id="SAYPnjNzp63IuCQWjsaV-10" value="+ przegladajAukcje(): void" style="text;strokeColor=none;fillColor=none;align=left;verticalAlign=top;spacingLeft=4;spacingRight=4;overflow=hidden;rotatable=0;points=[[0,0.5],[1,0.5]];portConstraint=eastwest;" vertex="1" parent="OdX9hXqS-RiyLQQksaOV-4">
          <mxGeometry y="138" width="160" height="26" as="geometry"/>
        </mxCell>
        <mxCell id="OdX9hXqS-RiyLQQksaOV-8" value="+ wyloguj(): void" style="text;strokeColor=none;fillColor=none;align=left;verticalAlign=top;spacingLeft=4;spacingRight=4;overflow=hidden;rotatable=0;points=[[0,0.5],[1,0.5]];portConstraint=eastwest;" parent="OdX9hXqS-RiyLQQksaOV-4" vertex="1">
          <mxGeometry y="164" width="160" height="26" as="geometry"/>
        </mxCell>
        <mxCell id="OdX9hXqS-RiyLQQksaOV-11" value="Adres" style="swimlane;fontStyle=1;align=center;verticalAlign=top;childLayout=stackLayout;horizontal=1;startSize=26;horizontalStack=0;resizeParent=1;resizeParentMax=0;resizeLast=0;collapsible=1;marginBottom=0;" parent="1" vertex="1">
          <mxGeometry x="120" y="230" width="160" height="104" as="geometry"/>
        </mxCell>
        <mxCell id="OdX9hXqS-RiyLQQksaOV-12" value="+ ulica: string" style="text;strokeColor=none;fillColor=none;align=left;verticalAlign=top;spacingLeft=4;spacingRight=4;overflow=hidden;rotatable=0;points=[[0,0.5],[1,0.5]];portConstraint=eastwest;" parent="OdX9hXqS-RiyLQQksaOV-11" vertex="1">
          <mxGeometry y="26" width="160" height="26" as="geometry"/>
        </mxCell>
        <mxCell id="OdX9hXqS-RiyLQQksaOV-15" value="+ miejscowość: string" style="text;strokeColor=none;fillColor=none;align=left;verticalAlign=top;spacingLeft=4;spacingRight=4;overflow=hidden;rotatable=0;points=[[0,0.5],[1,0.5]];portConstraint=eastwest;" parent="OdX9hXqS-RiyLQQksaOV-11" vertex="1">
          <mxGeometry y="52" width="160" height="26" as="geometry"/>
        </mxCell>
        <mxCell id="OdX9hXqS-RiyLQQksaOV-16" value="+ kod pocztowy: string" style="text;strokeColor=none;fillColor=none;align=left;verticalAlign=top;spacingLeft=4;spacingRight=4;overflow=hidden;rotatable=0;points=[[0,0.5],[1,0.5]];portConstraint=eastwest;" parent="OdX9hXqS-RiyLQQksaOV-11" vertex="1">
          <mxGeometry y="78" width="160" height="26" as="geometry"/>
        </mxCell>
        <mxCell id="OdX9hXqS-RiyLQQksaOV-73" value="Karta kredytowa" style="swimlane;fontStyle=1;align=center;verticalAlign=top;childLayout=stackLayout;horizontal=1;startSize=26;horizontalStack=0;resizeParent=1;resizeParentMax=0;resizeLast=0;collapsible=1;marginBottom=0;" parent="1" vertex="1">
          <mxGeometry x="650" y="150" width="160" height="190" as="geometry"/>
        </mxCell>
        <mxCell id="OdX9hXqS-RiyLQQksaOV-74" value="- typKarty: string" style="text;strokeColor=none;fillColor=none;align=left;verticalAlign=top;spacingLeft=4;spacingRight=4;overflow=hidden;rotatable=0;points=[[0,0.5],[1,0.5]];portConstraint=eastwest;" parent="OdX9hXqS-RiyLQQksaOV-73" vertex="1">
          <mxGeometry y="26" width="160" height="26" as="geometry"/>
        </mxCell>
        <mxCell id="OdX9hXqS-RiyLQQksaOV-75" value="- numer: string" style="text;strokeColor=none;fillColor=none;align=left;verticalAlign=top;spacingLeft=4;spacingRight=4;overflow=hidden;rotatable=0;points=[[0,0.5],[1,0.5]];portConstraint=eastwest;" parent="OdX9hXqS-RiyLQQksaOV-73" vertex="1">
          <mxGeometry y="52" width="160" height="26" as="geometry"/>
        </mxCell>
        <mxCell id="OdX9hXqS-RiyLQQksaOV-76" value="- dataWazosci: Date" style="text;strokeColor=none;fillColor=none;align=left;verticalAlign=top;spacingLeft=4;spacingRight=4;overflow=hidden;rotatable=0;points=[[0,0.5],[1,0.5]];portConstraint=eastwest;" parent="OdX9hXqS-RiyLQQksaOV-73" vertex="1">
          <mxGeometry y="78" width="160" height="26" as="geometry"/>
        </mxCell>
        <mxCell id="OdX9hXqS-RiyLQQksaOV-80" value="- limit: int" style="text;strokeColor=none;fillColor=none;align=left;verticalAlign=top;spacingLeft=4;spacingRight=4;overflow=hidden;rotatable=0;points=[[0,0.5],[1,0.5]];portConstraint=eastwest;" parent="OdX9hXqS-RiyLQQksaOV-73" vertex="1">
          <mxGeometry y="104" width="160" height="26" as="geometry"/>
        </mxCell>
        <mxCell id="OdX9hXqS-RiyLQQksaOV-77" value="" style="line;strokeWidth=1;fillColor=none;align=left;verticalAlign=middle;spacingTop=-1;spacingLeft=3;spacingRight=3;rotatable=0;labelPosition=right;points=[];portConstraint=eastwest;" parent="OdX9hXqS-RiyLQQksaOV-73" vertex="1">
          <mxGeometry y="130" width="160" height="8" as="geometry"/>
        </mxCell>
        <mxCell id="OdX9hXqS-RiyLQQksaOV-78" value="+ weryfikujDane(): void" style="text;strokeColor=none;fillColor=none;align=left;verticalAlign=top;spacingLeft=4;spacingRight=4;overflow=hidden;rotatable=0;points=[[0,0.5],[1,0.5]];portConstraint=eastwest;" parent="OdX9hXqS-RiyLQQksaOV-73" vertex="1">
          <mxGeometry y="138" width="160" height="26" as="geometry"/>
        </mxCell>
        <mxCell id="OdX9hXqS-RiyLQQksaOV-85" value="+ obciąż(): void" style="text;strokeColor=none;fillColor=none;align=left;verticalAlign=top;spacingLeft=4;spacingRight=4;overflow=hidden;rotatable=0;points=[[0,0.5],[1,0.5]];portConstraint=eastwest;" parent="OdX9hXqS-RiyLQQksaOV-73" vertex="1">
          <mxGeometry y="164" width="160" height="26" as="geometry"/>
        </mxCell>
        <mxCell id="OdX9hXqS-RiyLQQksaOV-17" value="Administrator" style="swimlane;fontStyle=1;align=center;verticalAlign=top;childLayout=stackLayout;horizontal=1;startSize=26;horizontalStack=0;resizeParent=1;resizeParentMax=0;resizeLast=0;collapsible=1;marginBottom=0;" parent="1" vertex="1">
          <mxGeometry x="60" y="30" width="160" height="112" as="geometry"/>
        </mxCell>
        <mxCell id="OdX9hXqS-RiyLQQksaOV-18" value="- idAdministratora: int" style="text;strokeColor=none;fillColor=none;align=left;verticalAlign=top;spacingLeft=4;spacingRight=4;overflow=hidden;rotatable=0;points=[[0,0.5],[1,0.5]];portConstraint=eastwest;" parent="OdX9hXqS-RiyLQQksaOV-17" vertex="1">
          <mxGeometry y="26" width="160" height="26" as="geometry"/>
        </mxCell>
        <mxCell id="OdX9hXqS-RiyLQQksaOV-19" value="" style="line;strokeWidth=1;fillColor=none;align=left;verticalAlign=middle;spacingTop=-1;spacingLeft=3;spacingRight=3;rotatable=0;labelPosition=right;points=[];portConstraint=eastwest;" parent="OdX9hXqS-RiyLQQksaOV-17" vertex="1">
          <mxGeometry y="52" width="160" height="8" as="geometry"/>
        </mxCell>
        <mxCell id="OdX9hXqS-RiyLQQksaOV-20" value="+ usunUzytkownika(): void" style="text;strokeColor=none;fillColor=none;align=left;verticalAlign=top;spacingLeft=4;spacingRight=4;overflow=hidden;rotatable=0;points=[[0,0.5],[1,0.5]];portConstraint=eastwest;" parent="OdX9hXqS-RiyLQQksaOV-17" vertex="1">
          <mxGeometry y="60" width="160" height="26" as="geometry"/>
        </mxCell>
        <mxCell id="OdX9hXqS-RiyLQQksaOV-94" value="+ aktualizujKategorie(): void" style="text;strokeColor=none;fillColor=none;align=left;verticalAlign=top;spacingLeft=4;spacingRight=4;overflow=hidden;rotatable=0;points=[[0,0.5],[1,0.5]];portConstraint=eastwest;" parent="OdX9hXqS-RiyLQQksaOV-17" vertex="1">
          <mxGeometry y="86" width="160" height="26" as="geometry"/>
        </mxCell>
        <mxCell id="OdX9hXqS-RiyLQQksaOV-22" value="Klient" style="swimlane;fontStyle=1;align=center;verticalAlign=top;childLayout=stackLayout;horizontal=1;startSize=26;horizontalStack=0;resizeParent=1;resizeParentMax=0;resizeLast=0;collapsible=1;marginBottom=0;" parent="1" vertex="1">
          <mxGeometry x="350" y="250" width="160" height="138" as="geometry"/>
        </mxCell>
        <mxCell id="OdX9hXqS-RiyLQQksaOV-23" value="# imie: string" style="text;strokeColor=none;fillColor=none;align=left;verticalAlign=top;spacingLeft=4;spacingRight=4;overflow=hidden;rotatable=0;points=[[0,0.5],[1,0.5]];portConstraint=eastwest;" parent="OdX9hXqS-RiyLQQksaOV-22" vertex="1">
          <mxGeometry y="26" width="160" height="26" as="geometry"/>
        </mxCell>
        <mxCell id="OdX9hXqS-RiyLQQksaOV-26" value="# nazwisko: string" style="text;strokeColor=none;fillColor=none;align=left;verticalAlign=top;spacingLeft=4;spacingRight=4;overflow=hidden;rotatable=0;points=[[0,0.5],[1,0.5]];portConstraint=eastwest;" parent="OdX9hXqS-RiyLQQksaOV-22" vertex="1">
          <mxGeometry y="52" width="160" height="26" as="geometry"/>
        </mxCell>
        <mxCell id="OdX9hXqS-RiyLQQksaOV-27" value="# adres: Adres" style="text;strokeColor=none;fillColor=none;align=left;verticalAlign=top;spacingLeft=4;spacingRight=4;overflow=hidden;rotatable=0;points=[[0,0.5],[1,0.5]];portConstraint=eastwest;" parent="OdX9hXqS-RiyLQQksaOV-22" vertex="1">
          <mxGeometry y="78" width="160" height="26" as="geometry"/>
        </mxCell>
        <mxCell id="OdX9hXqS-RiyLQQksaOV-24" value="" style="line;strokeWidth=1;fillColor=none;align=left;verticalAlign=middle;spacingTop=-1;spacingLeft=3;spacingRight=3;rotatable=0;labelPosition=right;points=[];portConstraint=eastwest;" parent="OdX9hXqS-RiyLQQksaOV-22" vertex="1">
          <mxGeometry y="104" width="160" height="8" as="geometry"/>
        </mxCell>
        <mxCell id="OdX9hXqS-RiyLQQksaOV-25" value="+ method(type): type" style="text;strokeColor=none;fillColor=none;align=left;verticalAlign=top;spacingLeft=4;spacingRight=4;overflow=hidden;rotatable=0;points=[[0,0.5],[1,0.5]];portConstraint=eastwest;" parent="OdX9hXqS-RiyLQQksaOV-22" vertex="1">
          <mxGeometry y="112" width="160" height="26" as="geometry"/>
        </mxCell>
        <mxCell id="OdX9hXqS-RiyLQQksaOV-100" style="edgeStyle=none;rounded=0;comic=0;orthogonalLoop=1;jettySize=auto;html=1;exitX=0.5;exitY=1;exitDx=0;exitDy=0;entryX=0.25;entryY=0;entryDx=0;entryDy=0;shadow=0;startArrow=none;startFill=0;endArrow=none;endFill=0;targetPerimeterSpacing=10;" parent="1" source="OdX9hXqS-RiyLQQksaOV-28" target="OdX9hXqS-RiyLQQksaOV-86" edge="1">
          <mxGeometry relative="1" as="geometry"/>
        </mxCell>
        <mxCell id="OdX9hXqS-RiyLQQksaOV-28" value="Sprzedawca" style="swimlane;fontStyle=1;align=center;verticalAlign=top;childLayout=stackLayout;horizontal=1;startSize=26;horizontalStack=0;resizeParent=1;resizeParentMax=0;resizeLast=0;collapsible=1;marginBottom=0;" parent="1" vertex="1">
          <mxGeometry x="170" y="440" width="160" height="78" as="geometry"/>
        </mxCell>
        <mxCell id="OdX9hXqS-RiyLQQksaOV-31" value="+ dodajAukcje(): void" style="text;strokeColor=none;fillColor=none;align=left;verticalAlign=top;spacingLeft=4;spacingRight=4;overflow=hidden;rotatable=0;points=[[0,0.5],[1,0.5]];portConstraint=eastwest;" parent="OdX9hXqS-RiyLQQksaOV-28" vertex="1">
          <mxGeometry y="26" width="160" height="26" as="geometry"/>
        </mxCell>
        <mxCell id="OdX9hXqS-RiyLQQksaOV-97" value="+ usuńAukcje(): void" style="text;strokeColor=none;fillColor=none;align=left;verticalAlign=top;spacingLeft=4;spacingRight=4;overflow=hidden;rotatable=0;points=[[0,0.5],[1,0.5]];portConstraint=eastwest;" parent="OdX9hXqS-RiyLQQksaOV-28" vertex="1">
          <mxGeometry y="52" width="160" height="26" as="geometry"/>
        </mxCell>
        <mxCell id="OdX9hXqS-RiyLQQksaOV-32" value="Kupujący" style="swimlane;fontStyle=1;align=center;verticalAlign=top;childLayout=stackLayout;horizontal=1;startSize=26;horizontalStack=0;resizeParent=1;resizeParentMax=0;resizeLast=0;collapsible=1;marginBottom=0;" parent="1" vertex="1">
          <mxGeometry x="540" y="440" width="160" height="104" as="geometry"/>
        </mxCell>
        <mxCell id="OdX9hXqS-RiyLQQksaOV-35" value="+ licytuj(): void" style="text;strokeColor=none;fillColor=none;align=left;verticalAlign=top;spacingLeft=4;spacingRight=4;overflow=hidden;rotatable=0;points=[[0,0.5],[1,0.5]];portConstraint=eastwest;" parent="OdX9hXqS-RiyLQQksaOV-32" vertex="1">
          <mxGeometry y="26" width="160" height="26" as="geometry"/>
        </mxCell>
        <mxCell id="OdX9hXqS-RiyLQQksaOV-93" value="+ kup(): void" style="text;strokeColor=none;fillColor=none;align=left;verticalAlign=top;spacingLeft=4;spacingRight=4;overflow=hidden;rotatable=0;points=[[0,0.5],[1,0.5]];portConstraint=eastwest;" parent="OdX9hXqS-RiyLQQksaOV-32" vertex="1">
          <mxGeometry y="52" width="160" height="26" as="geometry"/>
        </mxCell>
        <mxCell id="OdX9hXqS-RiyLQQksaOV-92" value="+ zapłać(): void" style="text;strokeColor=none;fillColor=none;align=left;verticalAlign=top;spacingLeft=4;spacingRight=4;overflow=hidden;rotatable=0;points=[[0,0.5],[1,0.5]];portConstraint=eastwest;" parent="OdX9hXqS-RiyLQQksaOV-32" vertex="1">
          <mxGeometry y="78" width="160" height="26" as="geometry"/>
        </mxCell>
        <mxCell id="OdX9hXqS-RiyLQQksaOV-36" value="Kategoria" style="swimlane;fontStyle=1;align=center;verticalAlign=top;childLayout=stackLayout;horizontal=1;startSize=26;horizontalStack=0;resizeParent=1;resizeParentMax=0;resizeLast=0;collapsible=1;marginBottom=0;" parent="1" vertex="1">
          <mxGeometry x="590" y="980" width="160" height="112" as="geometry"/>
        </mxCell>
        <mxCell id="OdX9hXqS-RiyLQQksaOV-37" value="+ nazwa: string" style="text;strokeColor=none;fillColor=none;align=left;verticalAlign=top;spacingLeft=4;spacingRight=4;overflow=hidden;rotatable=0;points=[[0,0.5],[1,0.5]];portConstraint=eastwest;" parent="OdX9hXqS-RiyLQQksaOV-36" vertex="1">
          <mxGeometry y="26" width="160" height="26" as="geometry"/>
        </mxCell>
        <mxCell id="OdX9hXqS-RiyLQQksaOV-55" value="+ opis: string" style="text;strokeColor=none;fillColor=none;align=left;verticalAlign=top;spacingLeft=4;spacingRight=4;overflow=hidden;rotatable=0;points=[[0,0.5],[1,0.5]];portConstraint=eastwest;" parent="OdX9hXqS-RiyLQQksaOV-36" vertex="1">
          <mxGeometry y="52" width="160" height="26" as="geometry"/>
        </mxCell>
        <mxCell id="OdX9hXqS-RiyLQQksaOV-38" value="" style="line;strokeWidth=1;fillColor=none;align=left;verticalAlign=middle;spacingTop=-1;spacingLeft=3;spacingRight=3;rotatable=0;labelPosition=right;points=[];portConstraint=eastwest;" parent="OdX9hXqS-RiyLQQksaOV-36" vertex="1">
          <mxGeometry y="78" width="160" height="8" as="geometry"/>
        </mxCell>
        <mxCell id="OdX9hXqS-RiyLQQksaOV-39" value="+ getTowary(): void" style="text;strokeColor=none;fillColor=none;align=left;verticalAlign=top;spacingLeft=4;spacingRight=4;overflow=hidden;rotatable=0;points=[[0,0.5],[1,0.5]];portConstraint=eastwest;" parent="OdX9hXqS-RiyLQQksaOV-36" vertex="1">
          <mxGeometry y="86" width="160" height="26" as="geometry"/>
        </mxCell>
        <mxCell id="OdX9hXqS-RiyLQQksaOV-52" value="" style="endArrow=open;html=1;endSize=12;startArrow=diamondThin;startSize=14;startFill=0;edgeStyle=orthogonalEdgeStyle;exitX=0.994;exitY=0.808;exitDx=0;exitDy=0;exitPerimeter=0;entryX=0.713;entryY=1.077;entryDx=0;entryDy=0;entryPerimeter=0;anchorPointDirection=1;" parent="OdX9hXqS-RiyLQQksaOV-36" source="OdX9hXqS-RiyLQQksaOV-37" target="OdX9hXqS-RiyLQQksaOV-39" edge="1">
          <mxGeometry relative="1" as="geometry">
            <mxPoint x="180" y="49.5" as="sourcePoint"/>
            <mxPoint x="120" y="150" as="targetPoint"/>
            <Array as="points">
              <mxPoint x="190" y="47"/>
              <mxPoint x="190" y="150"/>
              <mxPoint x="114" y="150"/>
            </Array>
          </mxGeometry>
        </mxCell>
        <mxCell id="OdX9hXqS-RiyLQQksaOV-53" value="0..1" style="resizable=0;html=1;align=left;verticalAlign=top;labelBackgroundColor=#ffffff;fontSize=10;" parent="OdX9hXqS-RiyLQQksaOV-52" connectable="0" vertex="1">
          <mxGeometry x="-1" relative="1" as="geometry"/>
        </mxCell>
        <mxCell id="OdX9hXqS-RiyLQQksaOV-54" value="0...*" style="resizable=0;html=1;align=right;verticalAlign=top;labelBackgroundColor=#ffffff;fontSize=10;" parent="OdX9hXqS-RiyLQQksaOV-52" connectable="0" vertex="1">
          <mxGeometry x="1" relative="1" as="geometry"/>
        </mxCell>
        <mxCell id="OdX9hXqS-RiyLQQksaOV-40" value="Towar" style="swimlane;fontStyle=1;align=center;verticalAlign=top;childLayout=stackLayout;horizontal=1;startSize=26;horizontalStack=0;resizeParent=1;resizeParentMax=0;resizeLast=0;collapsible=1;marginBottom=0;" parent="1" vertex="1">
          <mxGeometry x="360" y="910" width="160" height="216" as="geometry"/>
        </mxCell>
        <mxCell id="OdX9hXqS-RiyLQQksaOV-41" value="+ idTowaru: int" style="text;strokeColor=none;fillColor=none;align=left;verticalAlign=top;spacingLeft=4;spacingRight=4;overflow=hidden;rotatable=0;points=[[0,0.5],[1,0.5]];portConstraint=eastwest;" parent="OdX9hXqS-RiyLQQksaOV-40" vertex="1">
          <mxGeometry y="26" width="160" height="26" as="geometry"/>
        </mxCell>
        <mxCell id="OdX9hXqS-RiyLQQksaOV-95" value="+ nazwa: String" style="text;strokeColor=none;fillColor=none;align=left;verticalAlign=top;spacingLeft=4;spacingRight=4;overflow=hidden;rotatable=0;points=[[0,0.5],[1,0.5]];portConstraint=eastwest;" parent="OdX9hXqS-RiyLQQksaOV-40" vertex="1">
          <mxGeometry y="52" width="160" height="26" as="geometry"/>
        </mxCell>
        <mxCell id="OdX9hXqS-RiyLQQksaOV-57" value="+ opis: String" style="text;strokeColor=none;fillColor=none;align=left;verticalAlign=top;spacingLeft=4;spacingRight=4;overflow=hidden;rotatable=0;points=[[0,0.5],[1,0.5]];portConstraint=eastwest;" parent="OdX9hXqS-RiyLQQksaOV-40" vertex="1">
          <mxGeometry y="78" width="160" height="26" as="geometry"/>
        </mxCell>
        <mxCell id="OdX9hXqS-RiyLQQksaOV-96" value="+ cena: float" style="text;strokeColor=none;fillColor=none;align=left;verticalAlign=top;spacingLeft=4;spacingRight=4;overflow=hidden;rotatable=0;points=[[0,0.5],[1,0.5]];portConstraint=eastwest;" parent="OdX9hXqS-RiyLQQksaOV-40" vertex="1">
          <mxGeometry y="104" width="160" height="26" as="geometry"/>
        </mxCell>
        <mxCell id="OdX9hXqS-RiyLQQksaOV-111" value="+ ilość: int" style="text;strokeColor=none;fillColor=none;align=left;verticalAlign=top;spacingLeft=4;spacingRight=4;overflow=hidden;rotatable=0;points=[[0,0.5],[1,0.5]];portConstraint=eastwest;" parent="OdX9hXqS-RiyLQQksaOV-40" vertex="1">
          <mxGeometry y="130" width="160" height="26" as="geometry"/>
        </mxCell>
        <mxCell id="OdX9hXqS-RiyLQQksaOV-58" value="+ zdjecieURL: String" style="text;strokeColor=none;fillColor=none;align=left;verticalAlign=top;spacingLeft=4;spacingRight=4;overflow=hidden;rotatable=0;points=[[0,0.5],[1,0.5]];portConstraint=eastwest;" parent="OdX9hXqS-RiyLQQksaOV-40" vertex="1">
          <mxGeometry y="156" width="160" height="26" as="geometry"/>
        </mxCell>
        <mxCell id="OdX9hXqS-RiyLQQksaOV-42" value="" style="line;strokeWidth=1;fillColor=none;align=left;verticalAlign=middle;spacingTop=-1;spacingLeft=3;spacingRight=3;rotatable=0;labelPosition=right;points=[];portConstraint=eastwest;" parent="OdX9hXqS-RiyLQQksaOV-40" vertex="1">
          <mxGeometry y="182" width="160" height="8" as="geometry"/>
        </mxCell>
        <mxCell id="OdX9hXqS-RiyLQQksaOV-43" value="+ getSzczegoly(): void" style="text;strokeColor=none;fillColor=none;align=left;verticalAlign=top;spacingLeft=4;spacingRight=4;overflow=hidden;rotatable=0;points=[[0,0.5],[1,0.5]];portConstraint=eastwest;" parent="OdX9hXqS-RiyLQQksaOV-40" vertex="1">
          <mxGeometry y="190" width="160" height="26" as="geometry"/>
        </mxCell>
        <mxCell id="OdX9hXqS-RiyLQQksaOV-44" value="Faktura" style="swimlane;fontStyle=1;align=center;verticalAlign=top;childLayout=stackLayout;horizontal=1;startSize=26;horizontalStack=0;resizeParent=1;resizeParentMax=0;resizeLast=0;collapsible=1;marginBottom=0;" parent="1" vertex="1">
          <mxGeometry x="940.2000122070312" y="673" width="160" height="190" as="geometry"/>
        </mxCell>
        <mxCell id="OdX9hXqS-RiyLQQksaOV-49" value="+ nrFaktury: string" style="text;strokeColor=none;fillColor=none;align=left;verticalAlign=top;spacingLeft=4;spacingRight=4;overflow=hidden;rotatable=0;points=[[0,0.5],[1,0.5]];portConstraint=eastwest;" parent="OdX9hXqS-RiyLQQksaOV-44" vertex="1">
          <mxGeometry y="26" width="160" height="26" as="geometry"/>
        </mxCell>
        <mxCell id="OdX9hXqS-RiyLQQksaOV-45" value="+ dataWystawienia: Date" style="text;strokeColor=none;fillColor=none;align=left;verticalAlign=top;spacingLeft=4;spacingRight=4;overflow=hidden;rotatable=0;points=[[0,0.5],[1,0.5]];portConstraint=eastwest;" parent="OdX9hXqS-RiyLQQksaOV-44" vertex="1">
          <mxGeometry y="52" width="160" height="26" as="geometry"/>
        </mxCell>
        <mxCell id="OdX9hXqS-RiyLQQksaOV-48" value="+ dataPlatnosci: Date" style="text;strokeColor=none;fillColor=none;align=left;verticalAlign=top;spacingLeft=4;spacingRight=4;overflow=hidden;rotatable=0;points=[[0,0.5],[1,0.5]];portConstraint=eastwest;" parent="OdX9hXqS-RiyLQQksaOV-44" vertex="1">
          <mxGeometry y="78" width="160" height="26" as="geometry"/>
        </mxCell>
        <mxCell id="OdX9hXqS-RiyLQQksaOV-50" value="+ czyZaplacona: Boolean" style="text;strokeColor=none;fillColor=none;align=left;verticalAlign=top;spacingLeft=4;spacingRight=4;overflow=hidden;rotatable=0;points=[[0,0.5],[1,0.5]];portConstraint=eastwest;" parent="OdX9hXqS-RiyLQQksaOV-44" vertex="1">
          <mxGeometry y="104" width="160" height="26" as="geometry"/>
        </mxCell>
        <mxCell id="OdX9hXqS-RiyLQQksaOV-46" value="" style="line;strokeWidth=1;fillColor=none;align=left;verticalAlign=middle;spacingTop=-1;spacingLeft=3;spacingRight=3;rotatable=0;labelPosition=right;points=[];portConstraint=eastwest;" parent="OdX9hXqS-RiyLQQksaOV-44" vertex="1">
          <mxGeometry y="130" width="160" height="8" as="geometry"/>
        </mxCell>
        <mxCell id="OdX9hXqS-RiyLQQksaOV-47" value="+ sporządź(): void" style="text;strokeColor=none;fillColor=none;align=left;verticalAlign=top;spacingLeft=4;spacingRight=4;overflow=hidden;rotatable=0;points=[[0,0.5],[1,0.5]];portConstraint=eastwest;" parent="OdX9hXqS-RiyLQQksaOV-44" vertex="1">
          <mxGeometry y="138" width="160" height="26" as="geometry"/>
        </mxCell>
        <mxCell id="OdX9hXqS-RiyLQQksaOV-51" value="+ oznaczPłatność(): void" style="text;strokeColor=none;fillColor=none;align=left;verticalAlign=top;spacingLeft=4;spacingRight=4;overflow=hidden;rotatable=0;points=[[0,0.5],[1,0.5]];portConstraint=eastwest;" parent="OdX9hXqS-RiyLQQksaOV-44" vertex="1">
          <mxGeometry y="164" width="160" height="26" as="geometry"/>
        </mxCell>
        <mxCell id="OdX9hXqS-RiyLQQksaOV-59" value="" style="endArrow=block;dashed=1;endFill=0;endSize=12;html=1;exitX=0.5;exitY=0;exitDx=0;exitDy=0;entryX=0.375;entryY=0.962;entryDx=0;entryDy=0;entryPerimeter=0;" parent="1" source="OdX9hXqS-RiyLQQksaOV-28" target="OdX9hXqS-RiyLQQksaOV-25" edge="1">
          <mxGeometry width="160" relative="1" as="geometry">
            <mxPoint x="520" y="530" as="sourcePoint"/>
            <mxPoint x="680" y="530" as="targetPoint"/>
          </mxGeometry>
        </mxCell>
        <mxCell id="OdX9hXqS-RiyLQQksaOV-60" value="" style="endArrow=block;dashed=1;endFill=0;endSize=12;html=1;exitX=0.5;exitY=0;exitDx=0;exitDy=0;entryX=0.625;entryY=1.077;entryDx=0;entryDy=0;entryPerimeter=0;" parent="1" source="OdX9hXqS-RiyLQQksaOV-32" target="OdX9hXqS-RiyLQQksaOV-25" edge="1">
          <mxGeometry width="160" relative="1" as="geometry">
            <mxPoint x="430" y="374" as="sourcePoint"/>
            <mxPoint x="480" y="297.01199999999994" as="targetPoint"/>
          </mxGeometry>
        </mxCell>
        <mxCell id="OdX9hXqS-RiyLQQksaOV-61" value="" style="endArrow=block;dashed=1;endFill=0;endSize=12;html=1;exitX=0.5;exitY=0;exitDx=0;exitDy=0;entryX=0.5;entryY=1;entryDx=0;entryDy=0;" parent="1" source="OdX9hXqS-RiyLQQksaOV-22" target="OdX9hXqS-RiyLQQksaOV-4" edge="1">
          <mxGeometry width="160" relative="1" as="geometry">
            <mxPoint x="430" y="374" as="sourcePoint"/>
            <mxPoint x="440" y="342.01199999999994" as="targetPoint"/>
          </mxGeometry>
        </mxCell>
        <mxCell id="OdX9hXqS-RiyLQQksaOV-70" value="" style="endArrow=open;html=1;endSize=12;startArrow=diamondThin;startSize=14;startFill=1;shadow=0;exitX=1.006;exitY=0;exitDx=0;exitDy=0;exitPerimeter=0;entryX=0;entryY=0.5;entryDx=0;entryDy=0;" parent="1" source="OdX9hXqS-RiyLQQksaOV-16" target="OdX9hXqS-RiyLQQksaOV-27" edge="1">
          <mxGeometry relative="1" as="geometry">
            <mxPoint x="210" y="317.5" as="sourcePoint"/>
            <mxPoint x="370" y="317.5" as="targetPoint"/>
          </mxGeometry>
        </mxCell>
        <mxCell id="OdX9hXqS-RiyLQQksaOV-71" value="1" style="resizable=0;html=1;align=left;verticalAlign=top;labelBackgroundColor=#ffffff;fontSize=10;" parent="OdX9hXqS-RiyLQQksaOV-70" connectable="0" vertex="1">
          <mxGeometry x="-1" relative="1" as="geometry"/>
        </mxCell>
        <mxCell id="OdX9hXqS-RiyLQQksaOV-72" value="1..n" style="resizable=0;html=1;align=right;verticalAlign=top;labelBackgroundColor=#ffffff;fontSize=10;" parent="OdX9hXqS-RiyLQQksaOV-70" connectable="0" vertex="1">
          <mxGeometry x="1" relative="1" as="geometry"/>
        </mxCell>
        <mxCell id="OdX9hXqS-RiyLQQksaOV-81" value="" style="endArrow=none;html=1;endSize=12;startArrow=none;startSize=14;startFill=0;shadow=0;endFill=0;targetPerimeterSpacing=10;" parent="1" edge="1">
          <mxGeometry relative="1" as="geometry">
            <mxPoint x="635" y="249" as="sourcePoint"/>
            <mxPoint x="525" y="288" as="targetPoint"/>
          </mxGeometry>
        </mxCell>
        <mxCell id="OdX9hXqS-RiyLQQksaOV-82" value="0..n" style="resizable=0;html=1;align=left;verticalAlign=top;labelBackgroundColor=#ffffff;fontSize=10;" parent="OdX9hXqS-RiyLQQksaOV-81" connectable="0" vertex="1">
          <mxGeometry x="-1" relative="1" as="geometry"/>
        </mxCell>
        <mxCell id="OdX9hXqS-RiyLQQksaOV-83" value="1" style="resizable=0;html=1;align=right;verticalAlign=top;labelBackgroundColor=#ffffff;fontSize=10;" parent="OdX9hXqS-RiyLQQksaOV-81" connectable="0" vertex="1">
          <mxGeometry x="1" relative="1" as="geometry"/>
        </mxCell>
        <mxCell id="OdX9hXqS-RiyLQQksaOV-101" style="edgeStyle=none;rounded=0;comic=0;orthogonalLoop=1;jettySize=auto;html=1;exitX=0.75;exitY=0;exitDx=0;exitDy=0;entryX=0.369;entryY=1.077;entryDx=0;entryDy=0;entryPerimeter=0;shadow=0;startArrow=none;startFill=0;endArrow=none;endFill=0;targetPerimeterSpacing=10;" parent="1" source="OdX9hXqS-RiyLQQksaOV-86" target="OdX9hXqS-RiyLQQksaOV-92" edge="1">
          <mxGeometry relative="1" as="geometry"/>
        </mxCell>
        <mxCell id="OdX9hXqS-RiyLQQksaOV-86" value="Aukcja" style="swimlane;fontStyle=1;align=center;verticalAlign=top;childLayout=stackLayout;horizontal=1;startSize=26;horizontalStack=0;resizeParent=1;resizeParentMax=0;resizeLast=0;collapsible=1;marginBottom=0;" parent="1" vertex="1">
          <mxGeometry x="370" y="630" width="160" height="138" as="geometry"/>
        </mxCell>
        <mxCell id="OdX9hXqS-RiyLQQksaOV-87" value="+ czasTrwania: int" style="text;strokeColor=none;fillColor=none;align=left;verticalAlign=top;spacingLeft=4;spacingRight=4;overflow=hidden;rotatable=0;points=[[0,0.5],[1,0.5]];portConstraint=eastwest;" parent="OdX9hXqS-RiyLQQksaOV-86" vertex="1">
          <mxGeometry y="26" width="160" height="26" as="geometry"/>
        </mxCell>
        <mxCell id="OdX9hXqS-RiyLQQksaOV-99" value="+ stanAukcji: int" style="text;strokeColor=none;fillColor=none;align=left;verticalAlign=top;spacingLeft=4;spacingRight=4;overflow=hidden;rotatable=0;points=[[0,0.5],[1,0.5]];portConstraint=eastwest;" parent="OdX9hXqS-RiyLQQksaOV-86" vertex="1">
          <mxGeometry y="52" width="160" height="26" as="geometry"/>
        </mxCell>
        <mxCell id="OdX9hXqS-RiyLQQksaOV-88" value="" style="line;strokeWidth=1;fillColor=none;align=left;verticalAlign=middle;spacingTop=-1;spacingLeft=3;spacingRight=3;rotatable=0;labelPosition=right;points=[];portConstraint=eastwest;" parent="OdX9hXqS-RiyLQQksaOV-86" vertex="1">
          <mxGeometry y="78" width="160" height="8" as="geometry"/>
        </mxCell>
        <mxCell id="OdX9hXqS-RiyLQQksaOV-89" value="+ start(): void" style="text;strokeColor=none;fillColor=none;align=left;verticalAlign=top;spacingLeft=4;spacingRight=4;overflow=hidden;rotatable=0;points=[[0,0.5],[1,0.5]];portConstraint=eastwest;" parent="OdX9hXqS-RiyLQQksaOV-86" vertex="1">
          <mxGeometry y="86" width="160" height="26" as="geometry"/>
        </mxCell>
        <mxCell id="SAYPnjNzp63IuCQWjsaV-1" value="+ zakończ(): void" style="text;strokeColor=none;fillColor=none;align=left;verticalAlign=top;spacingLeft=4;spacingRight=4;overflow=hidden;rotatable=0;points=[[0,0.5],[1,0.5]];portConstraint=eastwest;" vertex="1" parent="OdX9hXqS-RiyLQQksaOV-86">
          <mxGeometry y="112" width="160" height="26" as="geometry"/>
        </mxCell>
        <mxCell id="OdX9hXqS-RiyLQQksaOV-90" value="" style="endArrow=none;html=1;endSize=12;startArrow=diamondThin;startSize=14;startFill=0;align=left;verticalAlign=bottom;shadow=0;entryX=1.019;entryY=0.846;entryDx=0;entryDy=0;entryPerimeter=0;endFill=0;exitX=0;exitY=0.5;exitDx=0;exitDy=0;" parent="1" source="OdX9hXqS-RiyLQQksaOV-9" target="OdX9hXqS-RiyLQQksaOV-18" edge="1">
          <mxGeometry x="-1" y="3" relative="1" as="geometry">
            <mxPoint x="320" y="78" as="sourcePoint"/>
            <mxPoint x="300" y="506.5" as="targetPoint"/>
          </mxGeometry>
        </mxCell>
        <mxCell id="OdX9hXqS-RiyLQQksaOV-102" value="" style="endArrow=none;html=1;endSize=12;startArrow=none;startSize=14;startFill=0;shadow=0;endFill=0;targetPerimeterSpacing=10;entryX=0;entryY=0.5;entryDx=0;entryDy=0;exitX=1;exitY=0.5;exitDx=0;exitDy=0;" parent="1" source="OdX9hXqS-RiyLQQksaOV-57" target="OdX9hXqS-RiyLQQksaOV-37" edge="1">
          <mxGeometry relative="1" as="geometry">
            <mxPoint x="335" y="780" as="sourcePoint"/>
            <mxPoint x="225" y="819" as="targetPoint"/>
          </mxGeometry>
        </mxCell>
        <mxCell id="OdX9hXqS-RiyLQQksaOV-103" value="0..n" style="resizable=0;html=1;align=left;verticalAlign=top;labelBackgroundColor=#ffffff;fontSize=10;" parent="OdX9hXqS-RiyLQQksaOV-102" connectable="0" vertex="1">
          <mxGeometry x="-1" relative="1" as="geometry"/>
        </mxCell>
        <mxCell id="OdX9hXqS-RiyLQQksaOV-104" value="1" style="resizable=0;html=1;align=right;verticalAlign=top;labelBackgroundColor=#ffffff;fontSize=10;" parent="OdX9hXqS-RiyLQQksaOV-102" connectable="0" vertex="1">
          <mxGeometry x="1" relative="1" as="geometry"/>
        </mxCell>
        <mxCell id="OdX9hXqS-RiyLQQksaOV-109" value="" style="endArrow=block;dashed=1;endFill=0;endSize=12;html=1;exitX=0.5;exitY=0;exitDx=0;exitDy=0;entryX=0.5;entryY=1;entryDx=0;entryDy=0;" parent="1" source="OdX9hXqS-RiyLQQksaOV-40" target="OdX9hXqS-RiyLQQksaOV-86" edge="1">
          <mxGeometry width="160" relative="1" as="geometry">
            <mxPoint x="260" y="450" as="sourcePoint"/>
            <mxPoint x="420" y="397.01199999999994" as="targetPoint"/>
          </mxGeometry>
        </mxCell>
        <mxCell id="OdX9hXqS-RiyLQQksaOV-110" style="edgeStyle=none;rounded=0;comic=0;orthogonalLoop=1;jettySize=auto;html=1;exitX=0;exitY=0.5;exitDx=0;exitDy=0;entryX=1.063;entryY=0.731;entryDx=0;entryDy=0;shadow=0;startArrow=none;startFill=0;endArrow=none;endFill=0;targetPerimeterSpacing=10;entryPerimeter=0;" parent="1" source="OdX9hXqS-RiyLQQksaOV-48" target="SAYPnjNzp63IuCQWjsaV-12" edge="1">
          <mxGeometry relative="1" as="geometry"/>
        </mxCell>
        <mxCell id="SAYPnjNzp63IuCQWjsaV-2" value="Gość" style="swimlane;fontStyle=1;align=center;verticalAlign=top;childLayout=stackLayout;horizontal=1;startSize=26;horizontalStack=0;resizeParent=1;resizeParentMax=0;resizeLast=0;collapsible=1;marginBottom=0;" vertex="1" parent="1">
          <mxGeometry x="600" y="25" width="160" height="78" as="geometry"/>
        </mxCell>
        <mxCell id="SAYPnjNzp63IuCQWjsaV-5" value="+ zarejestruj(): void" style="text;strokeColor=none;fillColor=none;align=left;verticalAlign=top;spacingLeft=4;spacingRight=4;overflow=hidden;rotatable=0;points=[[0,0.5],[1,0.5]];portConstraint=eastwest;" vertex="1" parent="SAYPnjNzp63IuCQWjsaV-2">
          <mxGeometry y="26" width="160" height="26" as="geometry"/>
        </mxCell>
        <mxCell id="SAYPnjNzp63IuCQWjsaV-8" value="+ zaloguj(): void" style="text;strokeColor=none;fillColor=none;align=left;verticalAlign=top;spacingLeft=4;spacingRight=4;overflow=hidden;rotatable=0;points=[[0,0.5],[1,0.5]];portConstraint=eastwest;" vertex="1" parent="SAYPnjNzp63IuCQWjsaV-2">
          <mxGeometry y="52" width="160" height="26" as="geometry"/>
        </mxCell>
        <mxCell id="SAYPnjNzp63IuCQWjsaV-7" style="rounded=0;orthogonalLoop=1;jettySize=auto;html=1;exitX=1;exitY=0.5;exitDx=0;exitDy=0;endArrow=none;endFill=0;" edge="1" parent="1" source="OdX9hXqS-RiyLQQksaOV-9" target="SAYPnjNzp63IuCQWjsaV-5">
          <mxGeometry relative="1" as="geometry"/>
        </mxCell>
        <mxCell id="SAYPnjNzp63IuCQWjsaV-11" value="Płatność" style="swimlane;fontStyle=1;align=center;verticalAlign=top;childLayout=stackLayout;horizontal=1;startSize=26;horizontalStack=0;resizeParent=1;resizeParentMax=0;resizeLast=0;collapsible=1;marginBottom=0;" vertex="1" parent="1">
          <mxGeometry x="650" y="680" width="160" height="112" as="geometry"/>
        </mxCell>
        <mxCell id="SAYPnjNzp63IuCQWjsaV-12" value="- dataPlatnosci: Date" style="text;strokeColor=none;fillColor=none;align=left;verticalAlign=top;spacingLeft=4;spacingRight=4;overflow=hidden;rotatable=0;points=[[0,0.5],[1,0.5]];portConstraint=eastwest;" vertex="1" parent="SAYPnjNzp63IuCQWjsaV-11">
          <mxGeometry y="26" width="160" height="26" as="geometry"/>
        </mxCell>
        <mxCell id="SAYPnjNzp63IuCQWjsaV-15" value="- rodzajPlatnosci: int" style="text;strokeColor=none;fillColor=none;align=left;verticalAlign=top;spacingLeft=4;spacingRight=4;overflow=hidden;rotatable=0;points=[[0,0.5],[1,0.5]];portConstraint=eastwest;" vertex="1" parent="SAYPnjNzp63IuCQWjsaV-11">
          <mxGeometry y="52" width="160" height="26" as="geometry"/>
        </mxCell>
        <mxCell id="SAYPnjNzp63IuCQWjsaV-13" value="" style="line;strokeWidth=1;fillColor=none;align=left;verticalAlign=middle;spacingTop=-1;spacingLeft=3;spacingRight=3;rotatable=0;labelPosition=right;points=[];portConstraint=eastwest;" vertex="1" parent="SAYPnjNzp63IuCQWjsaV-11">
          <mxGeometry y="78" width="160" height="8" as="geometry"/>
        </mxCell>
        <mxCell id="SAYPnjNzp63IuCQWjsaV-14" value="+ realizujPlatnosc(): void" style="text;strokeColor=none;fillColor=none;align=left;verticalAlign=top;spacingLeft=4;spacingRight=4;overflow=hidden;rotatable=0;points=[[0,0.5],[1,0.5]];portConstraint=eastwest;" vertex="1" parent="SAYPnjNzp63IuCQWjsaV-11">
          <mxGeometry y="86" width="160" height="26" as="geometry"/>
        </mxCell>
        <mxCell id="SAYPnjNzp63IuCQWjsaV-16" style="edgeStyle=none;rounded=0;orthogonalLoop=1;jettySize=auto;html=1;exitX=1;exitY=0.5;exitDx=0;exitDy=0;entryX=0;entryY=0.5;entryDx=0;entryDy=0;endArrow=none;endFill=0;" edge="1" parent="1" source="OdX9hXqS-RiyLQQksaOV-89" target="SAYPnjNzp63IuCQWjsaV-15">
          <mxGeometry relative="1" as="geometry"/>
        </mxCell>
        <mxCell id="SAYPnjNzp63IuCQWjsaV-18" value="Dostawa" style="swimlane;fontStyle=1;align=center;verticalAlign=top;childLayout=stackLayout;horizontal=1;startSize=26;horizontalStack=0;resizeParent=1;resizeParentMax=0;resizeLast=0;collapsible=1;marginBottom=0;" vertex="1" parent="1">
          <mxGeometry x="60" y="730" width="160" height="112" as="geometry"/>
        </mxCell>
        <mxCell id="SAYPnjNzp63IuCQWjsaV-19" value="+ typDostawy: string" style="text;strokeColor=none;fillColor=none;align=left;verticalAlign=top;spacingLeft=4;spacingRight=4;overflow=hidden;rotatable=0;points=[[0,0.5],[1,0.5]];portConstraint=eastwest;" vertex="1" parent="SAYPnjNzp63IuCQWjsaV-18">
          <mxGeometry y="26" width="160" height="26" as="geometry"/>
        </mxCell>
        <mxCell id="SAYPnjNzp63IuCQWjsaV-25" value="+ adresDostawy: string" style="text;strokeColor=none;fillColor=none;align=left;verticalAlign=top;spacingLeft=4;spacingRight=4;overflow=hidden;rotatable=0;points=[[0,0.5],[1,0.5]];portConstraint=eastwest;" vertex="1" parent="SAYPnjNzp63IuCQWjsaV-18">
          <mxGeometry y="52" width="160" height="26" as="geometry"/>
        </mxCell>
        <mxCell id="SAYPnjNzp63IuCQWjsaV-20" value="" style="line;strokeWidth=1;fillColor=none;align=left;verticalAlign=middle;spacingTop=-1;spacingLeft=3;spacingRight=3;rotatable=0;labelPosition=right;points=[];portConstraint=eastwest;" vertex="1" parent="SAYPnjNzp63IuCQWjsaV-18">
          <mxGeometry y="78" width="160" height="8" as="geometry"/>
        </mxCell>
        <mxCell id="SAYPnjNzp63IuCQWjsaV-21" value="+ realizuj(type): type" style="text;strokeColor=none;fillColor=none;align=left;verticalAlign=top;spacingLeft=4;spacingRight=4;overflow=hidden;rotatable=0;points=[[0,0.5],[1,0.5]];portConstraint=eastwest;" vertex="1" parent="SAYPnjNzp63IuCQWjsaV-18">
          <mxGeometry y="86" width="160" height="26" as="geometry"/>
        </mxCell>
        <mxCell id="SAYPnjNzp63IuCQWjsaV-22" style="edgeStyle=none;rounded=0;orthogonalLoop=1;jettySize=auto;html=1;exitX=1;exitY=0.5;exitDx=0;exitDy=0;entryX=-0.01;entryY=0.831;entryDx=0;entryDy=0;entryPerimeter=0;endArrow=none;endFill=0;" edge="1" parent="1" source="SAYPnjNzp63IuCQWjsaV-19" target="OdX9hXqS-RiyLQQksaOV-99">
          <mxGeometry relative="1" as="geometry"/>
        </mxCell>
      </root>
    </mxGraphModel>
  </diagram>
</mxfile>
